<svg width="34" height="34" viewBox="0 0 34 34" fill="none" xmlns="http://www.w3.org/2000/svg">
<path d="M16.8991 3.04465C21.4111 3.04465 21.9463 3.06155 23.7277 3.14323C25.5697 3.22772 27.4666 3.64738 28.8087 4.98945C30.1634 6.34419 30.5704 8.22281 30.6549 10.0704C30.7366 11.8519 30.7535 12.387 30.7535 16.8991C30.7535 21.4111 30.7366 21.9463 30.6549 23.7277C30.5718 25.5599 30.1423 27.4751 28.8087 28.8087C27.454 30.1634 25.5767 30.5704 23.7277 30.6549C21.9463 30.7366 21.4111 30.7535 16.8991 30.7535C12.387 30.7535 11.8519 30.7366 10.0704 30.6549C8.25238 30.5718 6.3118 30.1325 4.98945 28.8087C3.64175 27.461 3.22772 25.5641 3.14323 23.7277C3.06155 21.9463 3.04465 21.4111 3.04465 16.8991C3.04465 12.387 3.06155 11.8519 3.14323 10.0704C3.22632 8.24534 3.66006 6.31885 4.98945 4.98945C6.34138 3.63753 8.22703 3.22772 10.0704 3.14323C11.8519 3.06155 12.387 3.04465 16.8991 3.04465ZM16.8991 0C12.3096 0 11.7336 0.0197156 9.93102 0.101394C7.31871 0.221096 4.7247 0.947756 2.83623 2.83623C0.940715 4.73174 0.221096 7.32012 0.101394 9.93102C0.0197156 11.7336 0 12.3096 0 16.8991C0 21.4886 0.0197156 22.0646 0.101394 23.8671C0.221096 26.4766 0.950573 29.0777 2.83623 30.9619C4.73033 32.856 7.32293 33.5771 9.93102 33.6968C11.7336 33.7784 12.3096 33.7981 16.8991 33.7981C21.4886 33.7981 22.0646 33.7784 23.8671 33.6968C26.478 33.5771 29.0749 32.849 30.9619 30.9619C32.8588 29.065 33.5771 26.478 33.6968 23.8671C33.7784 22.0646 33.7981 21.4886 33.7981 16.8991C33.7981 12.3096 33.7784 11.7336 33.6968 9.93102C33.5771 7.31871 32.849 4.72329 30.9619 2.83623C29.0706 0.94494 26.471 0.219688 23.8671 0.101394C22.0646 0.0197156 21.4886 0 16.8991 0Z" fill="white"/>
<path d="M16.8984 8.22192C12.1061 8.22192 8.2207 12.1073 8.2207 16.8996C8.2207 21.6919 12.1061 25.5773 16.8984 25.5773C21.6907 25.5773 25.5761 21.6919 25.5761 16.8996C25.5761 12.1073 21.6907 8.22192 16.8984 8.22192ZM16.8984 22.5326C13.7875 22.5326 11.2654 20.0104 11.2654 16.8996C11.2654 13.7888 13.7875 11.2666 16.8984 11.2666C20.0092 11.2666 22.5314 13.7888 22.5314 16.8996C22.5314 20.0104 20.0092 22.5326 16.8984 22.5326Z" fill="white"/>
<path d="M25.9205 9.90612C27.0404 9.90612 27.9484 8.9982 27.9484 7.87823C27.9484 6.75826 27.0404 5.85034 25.9205 5.85034C24.8005 5.85034 23.8926 6.75826 23.8926 7.87823C23.8926 8.9982 24.8005 9.90612 25.9205 9.90612Z" fill="white"/>
</svg>
