<svg width="29" height="34" viewBox="0 0 29 34" fill="none" xmlns="http://www.w3.org/2000/svg">
<path d="M29 13.9774C26.036 13.9774 23.2881 13.0084 21.0461 11.3621V23.2414C21.0461 29.1746 16.325 34 10.523 34C8.28096 34 6.20102 33.2775 4.49245 32.0506C1.77924 30.1026 0 26.881 0 23.2414C0 17.3081 4.72109 12.4814 10.5244 12.4814C11.0066 12.4814 11.4778 12.5224 11.942 12.5862V13.9703V18.5534C11.493 18.4103 11.0191 18.3268 10.5244 18.3268C7.87495 18.3268 5.7188 20.5312 5.7188 23.2414C5.7188 25.1285 6.76639 26.7676 8.29621 27.5907C8.96273 27.9492 9.72071 28.1546 10.5258 28.1546C13.1143 28.1546 15.2261 26.0493 15.3231 23.4256L15.3273 0H21.0447C21.0447 0.507188 21.0932 1.00163 21.1791 1.48331C21.5823 3.7104 22.8752 5.62157 24.6669 6.81587C25.914 7.64748 27.4023 8.13342 28.9986 8.13342L29 13.9774Z" fill="white"/>
</svg>
