<svg width="35" height="25" viewBox="0 0 35 25" fill="none" xmlns="http://www.w3.org/2000/svg">
<path d="M3.28125 0C1.48112 0 0.0085451 1.38327 0 3.07751C0 3.07751 0 3.08019 0 3.08287C0 3.08556 0 3.08555 0 3.08824V21.6176C0 23.3146 1.47827 24.7059 3.28125 24.7059H31.7188C33.5217 24.7059 35 23.3146 35 21.6176V3.08824C35 3.08555 35 3.08556 35 3.08287C35 3.08019 35 3.07751 35 3.07751C34.9915 1.38327 33.5189 0 31.7188 0H3.28125ZM5.17822 1.37255H29.8246L17.5 9.45772L5.17822 1.37255ZM2.75147 1.45297L17.5 11.1305L32.2514 1.45297C32.9976 1.66475 33.536 2.30277 33.5417 3.08019C33.5388 3.22495 33.3822 3.51448 33.1543 3.7477C32.9236 3.98361 32.6986 4.13105 32.6986 4.13105L32.6957 4.13641L17.5 14.259L2.30428 4.13641L2.30143 4.13105C2.30143 4.13105 2.07642 3.98361 1.8457 3.7477C1.61784 3.51448 1.46118 3.22495 1.45833 3.08019C1.46403 2.30277 2.00236 1.66475 2.75147 1.45297ZM1.45833 5.25161L1.46403 5.25697L1.46973 5.25965V5.26233L3.64583 6.70994V23.3333H3.28125C2.26725 23.3333 1.45833 22.572 1.45833 21.6176V5.25161ZM33.5417 5.25161V21.6176C33.5417 22.572 32.7327 23.3333 31.7188 23.3333H31.3542V6.70994L33.5303 5.26233V5.25965L33.5417 5.25161ZM5.10417 7.68038L17.5 15.9371L29.8958 7.68038V23.3333H5.10417V7.68038Z" fill="white"/>
</svg>
